<?xml version="1.0" encoding="utf-8"?>
<!-- Generator: Adobe Illustrator 27.1.1, SVG Export Plug-In . SVG Version: 6.00 Build 0)  -->
<svg version="1.1" id="Layer_1" xmlns="http://www.w3.org/2000/svg" xmlns:xlink="http://www.w3.org/1999/xlink" x="0px" y="0px"
	 viewBox="0 0 400 400" style="enable-background:new 0 0 400 400;" xml:space="preserve">
<style type="text/css">
	
		.st0{fill:url(#SVGID_1_);stroke:url(#SVGID_00000127748557105410595170000007157081696184765601_);stroke-width:0.5433;stroke-miterlimit:10;}
	
		.st1{fill:none;stroke:url(#SVGID_00000091721606709808258000000017522489737223740310_);stroke-width:29.3374;stroke-miterlimit:10;}
</style>
<g>
	<linearGradient id="SVGID_1_" gradientUnits="userSpaceOnUse" x1="89.7597" y1="196.0734" x2="302.3487" y2="196.0734">
		<stop  offset="1.438503e-07" style="stop-color:#3F68B1"/>
		<stop  offset="1" style="stop-color:#E49A25"/>
	</linearGradient>
	
		<linearGradient id="SVGID_00000007427646537987125620000017169244148799661481_" gradientUnits="userSpaceOnUse" x1="89.4881" y1="196.0734" x2="302.6204" y2="196.0734">
		<stop  offset="9.496934e-03" style="stop-color:#3F68B1"/>
		<stop  offset="1" style="stop-color:#E49A25"/>
	</linearGradient>
	
		<path style="fill:url(#SVGID_1_);stroke:url(#SVGID_00000007427646537987125620000017169244148799661481_);stroke-width:0.5433;stroke-miterlimit:10;" d="
		M266.87,112.02c25.21,22.43,37.33,50.7,35.24,84.54c-1.66,26.94-12.93,49.57-32.43,68.14c-1.13,1.08-1.12,1.7-0.27,2.9
		c6.16,8.7,12.24,17.45,18.34,26.19c2.3,3.29,2.4,6.72,0.33,9.65c-2.05,2.9-5.42,3.98-9.21,2.9c-18.13-5.19-36.27-10.39-54.39-15.61
		c-0.95-0.27-1.81-0.3-2.78-0.06c-12.03,2.93-24.23,3.77-36.53,2.49c-22.77-2.36-42.77-11.14-60.1-26.12
		c-33.21-28.71-44.45-76.31-27.48-116.71c16.53-39.36,55.22-64.86,98.49-64.92C222.18,85.37,247.01,94.34,266.87,112.02z
		 M255.29,275.08c-1.02-1.47-2.06-2.92-3.07-4.39c-3.82-5.51-3.28-9.18,1.87-13.38c10.89-8.88,19.34-19.68,25.02-32.56
		c15.39-34.86,6.52-75.03-22.09-100.39c-38-33.68-96.22-30.09-129.76,8.02c-32,36.35-28.04,92.12,9.05,123.31
		c24.45,20.56,52.5,26.56,83.48,19.05c2.26-0.55,4.4-0.6,6.67,0.07c11.25,3.29,22.53,6.48,33.8,9.71c0.45,0.13,0.91,0.22,1.94,0.48
		C259.7,281.4,257.5,278.24,255.29,275.08z"/>
</g>
<linearGradient id="SVGID_00000087376022953780073980000018013227724193600687_" gradientUnits="userSpaceOnUse" x1="11.2675" y1="197.0734" x2="388.8409" y2="197.0734">
	<stop  offset="0.438" style="stop-color:#3F68B1"/>
	<stop  offset="1" style="stop-color:#E49A25"/>
</linearGradient>
<circle style="fill:none;stroke:url(#SVGID_00000087376022953780073980000018013227724193600687_);stroke-width:29.3374;stroke-miterlimit:10;" cx="200.05" cy="197.07" r="174.12"/>
</svg>
